<svg width="21" height="19" viewBox="0 0 21 19" fill="none" xmlns="http://www.w3.org/2000/svg">
<path opacity="0.4" d="M20.9163 13.6044C20.9163 16.5106 18.583 18.8648 15.6768 18.8752H15.6663H5.34343C2.44759 18.8752 0.0830078 16.5315 0.0830078 13.6252V13.6148C0.0830078 13.6148 0.0892578 9.00439 0.0975911 6.68564C0.0986328 6.25022 0.598633 6.00647 0.939258 6.27731C3.41426 8.24085 7.8403 11.8211 7.89551 11.8679C8.63509 12.4606 9.57259 12.795 10.5309 12.795C11.4893 12.795 12.4268 12.4606 13.1663 11.8565C13.2216 11.82 17.5486 8.3471 20.0611 6.35127C20.4028 6.07939 20.9049 6.32314 20.9059 6.75752C20.9163 9.05856 20.9163 13.6044 20.9163 13.6044Z" fill="#4A3AFF"/>
<path d="M20.3704 2.90999C19.4683 1.20999 17.6933 0.124573 15.7392 0.124573H5.34334C3.38918 0.124573 1.61418 1.20999 0.712094 2.90999C0.510011 3.2902 0.605844 3.76416 0.942302 4.03291L8.67668 10.2194C9.21834 10.6569 9.87459 10.8746 10.5308 10.8746C10.535 10.8746 10.5381 10.8746 10.5413 10.8746C10.5444 10.8746 10.5486 10.8746 10.5517 10.8746C11.2079 10.8746 11.8642 10.6569 12.4058 10.2194L20.1402 4.03291C20.4767 3.76416 20.5725 3.2902 20.3704 2.90999Z" fill="#4A3AFF"/>
</svg>
