<svg width="15" height="15" viewBox="0 0 15 15" fill="none" xmlns="http://www.w3.org/2000/svg">
<path d="M8.14286 3.21429C8.14286 2.85925 7.85504 2.57143 7.5 2.57143C7.14496 2.57143 6.85714 2.85925 6.85714 3.21429V7.5C6.85714 7.72165 6.97133 7.92767 7.15929 8.04514L9.73072 9.65228C10.0318 9.84046 10.4284 9.74893 10.6166 9.44786C10.8047 9.14678 10.7132 8.75017 10.4121 8.562L8.14286 7.1437V3.21429Z" fill="white"/>
<path fill-rule="evenodd" clip-rule="evenodd" d="M7.5 0C3.35786 0 0 3.35786 0 7.5C0 11.6421 3.35786 15 7.5 15C11.6421 15 15 11.6421 15 7.5C15 3.35786 11.6421 0 7.5 0ZM1.28571 7.5C1.28571 4.06794 4.06794 1.28571 7.5 1.28571C10.9321 1.28571 13.7143 4.06794 13.7143 7.5C13.7143 10.9321 10.9321 13.7143 7.5 13.7143C4.06794 13.7143 1.28571 10.9321 1.28571 7.5Z" fill="white"/>
</svg>
