<svg width="20" height="16" viewBox="0 0 20 16" fill="none" xmlns="http://www.w3.org/2000/svg">
<path d="M16.2772 2.11071C18.3248 5.19874 19.3361 8.68195 18.9581 12.6919C18.9565 12.7089 18.9479 12.7245 18.9343 12.7347C17.3836 13.9026 15.8813 14.6114 14.4 15.0814C14.3884 15.085 14.3761 15.0848 14.3647 15.0808C14.3533 15.0769 14.3433 15.0694 14.3363 15.0593C13.9941 14.5709 13.6831 14.056 13.4107 13.5153C13.3951 13.4835 13.4094 13.4451 13.4415 13.4326C13.9354 13.2417 14.405 13.013 14.8566 12.7421C14.8922 12.7208 14.8945 12.6684 14.8616 12.6433C14.7658 12.5703 14.6708 12.4936 14.5799 12.4169C14.5629 12.4027 14.54 12.4 14.5208 12.4095C11.5883 13.7984 8.37601 13.7984 5.4089 12.4095C5.38964 12.4007 5.36675 12.4037 5.3502 12.4176C5.25955 12.4943 5.16436 12.5703 5.0694 12.6433C5.03654 12.6684 5.03926 12.7208 5.07507 12.7421C5.52675 13.0078 5.99634 13.2417 6.4895 13.4335C6.52145 13.446 6.53664 13.4835 6.52077 13.5153C6.25425 14.0567 5.94331 14.5716 5.59474 15.06C5.57956 15.0798 5.55463 15.0888 5.53106 15.0814C4.0568 14.6114 2.55443 13.9026 1.00379 12.7347C0.990874 12.7245 0.981582 12.7082 0.980222 12.6912C0.664293 9.22266 1.30816 5.71062 3.6586 2.11001C3.66426 2.10048 3.67288 2.09304 3.68285 2.08862C4.83937 1.5442 6.07838 1.14366 7.37338 0.91492C7.39695 0.911201 7.42052 0.922359 7.43275 0.943746C7.59276 1.23432 7.77565 1.60696 7.8994 1.91149C9.26442 1.69762 10.6507 1.69762 12.0443 1.91149C12.1681 1.61347 12.3446 1.23432 12.5039 0.943746C12.5096 0.933136 12.5184 0.924636 12.5291 0.91946C12.5397 0.914283 12.5517 0.912694 12.5633 0.91492C13.859 1.14436 15.098 1.54489 16.2536 2.08862C16.2638 2.09304 16.2722 2.10048 16.2772 2.11071ZM8.59335 8.70566C8.60763 7.68027 7.87877 6.83178 6.96385 6.83178C6.0564 6.83178 5.33456 7.67283 5.33456 8.70566C5.33456 9.73826 6.07068 10.5793 6.96385 10.5793C7.87152 10.5793 8.59335 9.73826 8.59335 8.70566ZM14.6178 8.70566C14.632 7.68027 13.9032 6.83178 12.9885 6.83178C12.0808 6.83178 11.359 7.67283 11.359 8.70566C11.359 9.73826 12.0951 10.5793 12.9885 10.5793C13.9032 10.5793 14.6178 9.73826 14.6178 8.70566Z" fill="white"/>
</svg>
