<svg width="20" height="17" viewBox="0 0 20 17" fill="none" xmlns="http://www.w3.org/2000/svg">
<path d="M5.3221 0.942446C8.55599 0.655578 11.8082 0.655578 15.0421 0.942446L16.6001 1.08066C17.6373 1.17266 18.5256 1.80398 18.9859 2.70702C19.0448 2.82255 19.0007 2.96242 18.8922 3.03097L12.4278 7.11459C11.0414 7.99041 9.29323 8.00879 7.88943 7.1623L1.38188 3.23824C1.27674 3.17484 1.22848 3.04434 1.27587 2.92948C1.69695 1.90875 2.64363 1.18004 3.76405 1.08066L5.3221 0.942446Z" fill="white"/>
<path d="M1.27057 5.00538C1.10967 4.90835 0.904364 5.01276 0.885609 5.20252C0.623839 7.85091 0.687195 10.5244 1.07568 13.1606C1.28047 14.5504 2.392 15.6159 3.76405 15.7376L5.3221 15.8758C8.55599 16.1626 11.8082 16.1626 15.0421 15.8758L16.6001 15.7376C17.9722 15.6159 19.0837 14.5504 19.2885 13.1606C19.6883 10.4475 19.7437 7.69506 19.4548 4.97105C19.4346 4.77996 19.2258 4.67747 19.0656 4.77864L13.2424 8.4573C11.3666 9.64223 9.00144 9.66709 7.10217 8.52184L1.27057 5.00538Z" fill="white"/>
</svg>
