<svg width="17" height="16" viewBox="0 0 17 16" fill="none" xmlns="http://www.w3.org/2000/svg">
<path fill-rule="evenodd" clip-rule="evenodd" d="M2.01809 10.3912C0.0512059 5.5634 3.60292 0.28125 8.81601 0.28125H9.09726C12.9959 0.28125 16.1564 3.44176 16.1564 7.34044C16.1564 11.6812 12.6376 15.2 8.29688 15.2H1.45414C1.17566 15.2 0.927511 15.0242 0.835087 14.7616C0.742663 14.4989 0.826094 14.2064 1.04322 14.0321L2.76827 12.6467C2.8437 12.5861 2.87038 12.4832 2.83388 12.3936L2.01809 10.3912ZM8.81601 1.59375C4.53504 1.59375 1.61839 5.93143 3.23358 9.896L4.04938 11.8984C4.30488 12.5255 4.11811 13.246 3.59011 13.6701L3.31935 13.8875H8.29688C11.9127 13.8875 14.8439 10.9563 14.8439 7.34044C14.8439 4.16663 12.2711 1.59375 9.09726 1.59375H8.81601Z" fill="white"/>
</svg>