<svg width="21" height="17" viewBox="0 0 21 17" fill="none" xmlns="http://www.w3.org/2000/svg">
<path d="M1.68631 7.4182C1.68631 7.4182 10.572 4.04556 13.6538 2.85801C14.8351 2.38299 18.8414 0.86293 18.8414 0.86293C18.8414 0.86293 20.6905 0.197902 20.5364 1.81297C20.485 2.478 20.0741 4.80559 19.6632 7.3232C19.0469 10.8858 18.3792 14.781 18.3792 14.781C18.3792 14.781 18.2764 15.8736 17.4033 16.0636C16.5301 16.2536 15.0919 15.3985 14.8351 15.2085C14.6297 15.066 10.9829 12.9284 9.64751 11.8834C9.28797 11.5984 8.87707 11.0284 9.69888 10.3633C11.5479 8.79576 13.7565 6.84818 15.0919 5.61313C15.7083 5.04311 16.3246 3.71305 13.7565 5.32812C10.1098 7.65571 6.51439 9.84081 6.51439 9.84081C6.51439 9.84081 5.69259 10.3158 4.15172 9.88831C2.61084 9.46079 0.813149 8.89077 0.813149 8.89077C0.813149 8.89077 -0.419553 8.17824 1.68631 7.4182Z" fill="white"/>
</svg>
