<svg width="25" height="24" viewBox="0 0 25 24" fill="none" xmlns="http://www.w3.org/2000/svg">
<g id="Iconly/Bulk/Work">
<g id="Work">
<path id="Fill 1" opacity="0.4" d="M2.75586 11.0786C2.80586 13.4166 2.94586 17.4156 2.96586 17.8566C3.03686 18.7996 3.39786 19.7526 3.95986 20.4246C4.74186 21.3676 5.70486 21.7886 7.04786 21.7886C8.90386 21.7986 10.9499 21.7986 12.9369 21.7986C14.9319 21.7986 16.8679 21.7986 18.5029 21.7886C19.8269 21.7886 20.8199 21.3566 21.5919 20.4246C22.1539 19.7526 22.5149 18.7896 22.5659 17.8566C22.5859 17.4856 22.6859 13.1446 22.7459 11.0786H2.75586Z" fill="#4A3AFF"/>
<path id="Fill 4" d="M12.001 15.3842V16.6782C12.001 17.0922 12.337 17.4282 12.751 17.4282C13.165 17.4282 13.501 17.0922 13.501 16.6782V15.3842C13.501 14.9702 13.165 14.6342 12.751 14.6342C12.337 14.6342 12.001 14.9702 12.001 15.3842Z" fill="#4A3AFF"/>
<path id="Fill 6" fill-rule="evenodd" clip-rule="evenodd" d="M10.9669 14.5564C10.8669 14.9194 10.5179 15.1514 10.1399 15.1014C7.58886 14.7454 5.15086 13.8404 3.09286 12.4814C2.88186 12.3434 2.75586 12.1074 2.75586 11.8554V8.38943C2.75586 6.28943 4.46786 4.58143 6.57286 4.58143H8.53986C8.72786 3.12943 9.95786 2.00043 11.4599 2.00043H14.0419C15.5429 2.00043 16.7739 3.12943 16.9619 4.58143H18.9389C21.0379 4.58143 22.7459 6.28943 22.7459 8.38943V11.8554C22.7459 12.1074 22.6189 12.3424 22.4099 12.4814C20.3479 13.8464 17.8999 14.7554 15.3319 15.1104C15.2969 15.1154 15.2629 15.1174 15.2289 15.1174C14.8899 15.1174 14.5869 14.8884 14.5019 14.5524C14.2999 13.7564 13.5769 13.1994 12.7459 13.1994C11.9039 13.1994 11.1889 13.7444 10.9669 14.5564ZM14.0419 3.50043H11.4599C10.7869 3.50043 10.2249 3.96043 10.0569 4.58143H15.4439C15.2759 3.96043 14.7139 3.50043 14.0419 3.50043Z" fill="#4A3AFF"/>
</g>
</g>
</svg>
